#!OML:ASF H:\Terrain\Patient Classification 1\Walking\liu\liu.ASF
:FULLY-SPECIFIED
:DEGREES
269
root 9.26725 16.8667 23.1271 2.39292 6.87948 -3.21691
lowerback -6.39372 -4.18803 -0.814964
upperback -1.12444 -5.63526 3.82829
thorax 2.87925 -2.83679 3.90293
lowerneck -22.6197 -1.21143 -10.3954
upperneck 31.0075 -0.710904 8.69105
head 14.5446 -0.307136 5.27353
rclavicle 5.72748e-014 -4.45278e-014
rhumerus -49.6817 -2.13577 -75.8701
rradius 15.6061
rwrist 8.71792
rhand -20.8974 -26.7085
rfingers 7.12502
rthumb 5.47344 -56.6178
lclavicle 5.72748e-014 -4.45278e-014
lhumerus -12.8844 -19.7177 88.4917
lradius 48.0055
lwrist 15.9878
lhand -19.646 -27.9599
lfingers 7.12502
lthumb 6.68157 1.9147
rfemur -29.1567 -2.99606 29.6114
rtibia 33.6152
rfoot -6.6729 5.181
rtoes -13.6329
lfemur 8.88618 11.1935 -10.0825
ltibia 44.6012
lfoot 11.788 0.655166
ltoes -18.5986
270
root 9.26228 16.892 23.3549 1.96082 7.24663 -2.84174
lowerback -6.0927 -4.26452 -1.34668
upperback -0.883535 -5.70557 3.74232
thorax 3.0093 -2.88249 4.11488
lowerneck -22.5764 -1.26411 -10.2197
upperneck 30.6827 -0.776896 8.477
head 14.3981 -0.336066 5.11888
rclavicle 2.74323e-014 -1.27222e-014
rhumerus -49.2213 -1.64616 -76.4507
rradius 15.9683
rwrist 7.22431
rhand -20.5199 -28.2226
rfingers 7.12502
rthumb 5.83785 -58.1222
lclavicle 2.74323e-014 -1.27222e-014
lhumerus -13.4333 -19.8515 88.9023
lradius 47.6302
lwrist 15.2579
lhand -19.5755 -28.0555
lfingers 7.12502
lthumb 6.74961 1.81689
rfemur -27.6851 -4.35272 29.4015
rtibia 33.4729
rfoot -6.92131 5.90801
rtoes -11.6947
lfemur 7.39526 11.0369 -10.3462
ltibia 48.3107
lfoot 12.0723 2.98198
ltoes -21.1738
271
root 9.22751 16.9229 23.5392 2.02741 7.33869 -4.16939
lowerback -6.02159 -4.13979 -0.378901
upperback -0.946411 -5.61319 4.22366
thorax 2.853 -2.82653 4.09259
lowerneck -22.2573 -1.36076 -10.4301
upperneck 30.283 -0.935169 8.70491
head 14.174 -0.390095 5.19359
rclavicle -1.2921e-014 5.56597e-015
rhumerus -48.8604 -0.92859 -77.2209
rradius 16.3642
rwrist 5.66195
rhand -20.7168 -28.4979
rfingers 7.12502
rthumb 5.64778 -58.4027
lclavicle -1.2921e-014 5.56597e-015
lhumerus -14.1296 -19.7659 89.5005
lradius 47.2135
lwrist 14.4786
lhand -19.5311 -28.3815
lfingers 7.12502
lthumb 6.79243 1.48959
rfemur -26.9646 -4.25894 31.0699
rtibia 32.9844
rfoot -7.17776 5.61296
rtoes -11.4824
lfemur 4.71746 11.1823 -8.75449
ltibia 52.187
lfoot 12.0302 5.07554
ltoes -19.3237
272
root 9.24407 16.9708 23.7183 2.04278 8.03227 -4.00054
lowerback -5.83524 -4.1886 -0.36982
upperback -0.924701 -5.67412 4.16677
thorax 2.76936 -2.85613 4.03546
lowerneck -22.3541 -1.58931 -10.7488
upperneck 30.199 -1.24237 9.02758
head 14.2035 -0.511728 5.3291
rclavicle -1.64494e-014 2.70347e-014
rhumerus -48.2622 -0.676528 -77.6195
rradius 16.5507
rwrist 4.73705
rhand -21.7766 -27.2854
rfingers 7.12502
rthumb 4.6245 -57.2149
lclavicle -1.64494e-014 2.70347e-014
lhumerus -14.6375 -19.6774 90.1805
lradius 46.5644
lwrist 13.5833
lhand -19.5827 -28.7988
lfingers 7.12502
lthumb 6.74268 1.07385
rfemur -25.96 -6.19908 30.993
rtibia 32.4353
rfoot -7.63678 6.8195
rtoes -11.8599
lfemur 2.41386 10.3519 -9.42533
ltibia 55.5538
lfoot 11.3015 7.92563
ltoes -13.8524
273
root 9.21287 17.003 23.9228 1.91922 7.8937 -4.75072
lowerback -5.89924 -3.98617 0.0388013
upperback -0.77834 -5.44456 4.42533
thorax 2.92679 -2.74106 4.08759
lowerneck -22.6107 -1.7265 -10.7069
upperneck 30.2987 -1.43724 9.0323
head 14.3303 -0.589103 5.30068
rclavicle 3.15819e-014 -8.74653e-015
rhumerus -47.5556 -0.624238 -77.8602
rradius 16.6428
rwrist 3.88372
rhand -22.1822 -26.9231
rfingers 7.12502
rthumb 4.23287 -56.8608
lclavicle 3.15819e-014 -8.74653e-015
lhumerus -15.1725 -19.4173 90.7658
lradius 45.7481
lwrist 12.6129
lhand -18.466 -28.5938
lfingers 7.12502
lthumb 7.82055 1.24156
rfemur -24.6961 -5.71052 31.9208
rtibia 31.52
rfoot -7.97626 6.47855
rtoes -11.7579
lfemur 0.218536 10.4077 -8.61086
ltibia 58.9046
lfoot 10.2924 10.1622
ltoes -8.89245
274
root 9.22313 17.0525 24.097 1.86682 8.28338 -4.89981
lowerback -5.57764 -3.96981 0.360639
upperback -0.847024 -5.42962 4.41361
thorax 2.64367 -2.7277 3.9227
lowerneck -22.4894 -1.83974 -10.7651
upperneck 30.2128 -1.6132 9.09624
head 14.2913 -0.662313 5.29921
rclavicle 6.43068e-014 -8.74653e-015
rhumerus -47.0389 -0.723432 -77.9117
rradius 16.9154
rwrist 3.41478
rhand -21.3606 -27.627
rfingers 7.12502
rthumb 5.02621 -57.5474
lclavicle 6.43068e-014 -8.74653e-015
lhumerus -15.9095 -19.5911 91.2825
lradius 44.8589
lwrist 12.1522
lhand -17.0118 -28.0066
lfingers 7.12502
lthumb 9.22396 1.77169
rfemur -23.545 -6.64566 32.0416
rtibia 30.7538
rfoot -8.55141 7.25759
rtoes -12.0529
lfemur -1.99325 9.78354 -8.94616
ltibia 61.6996
lfoot 7.69875 11.9355
ltoes -10.7715
275
root 9.21753 17.101 24.274 1.97895 8.40044 -5.01802
lowerback -5.43773 -3.85418 0.432105
upperback -0.96996 -5.27124 4.47141
thorax 2.42654 -2.64634 3.971
lowerneck -22.1434 -2.03356 -11.0248
upperneck 29.9851 -1.8843 9.26485
head 14.1584 -0.786071 5.34816
rclavicle -5.55479e-014 4.05521e-014
rhumerus -46.6574 -0.392032 -78.2813
rradius 17.3491
rwrist 2.87965
rhand -21.3103 -29.5458
rfingers 7.12502
rthumb 5.07472 -59.465
lclavicle -5.55479e-014 4.05521e-014
lhumerus -16.64 -20.2804 91.8502
lradius 43.8621
lwrist 12.2403
lhand -17.0278 -28.1276
lfingers 7.12502
lthumb 9.20856 1.65129
rfemur -22.4364 -6.82048 32.1608
rtibia 29.7578
rfoot -8.98553 7.56336
rtoes -11.9593
lfemur -4.3452 9.39112 -9.27607
ltibia 64.2305
lfoot 6.8117 12.9642
ltoes -6.97147
276
root 9.20484 17.1414 24.4598 2.15661 8.39112 -5.12785
lowerback -5.54045 -3.63044 0.418477
upperback -1.03529 -4.97249 4.50444
thorax 2.39988 -2.49646 4.03366
lowerneck -21.9348 -2.21871 -11.1636
upperneck 29.9024 -2.19621 9.47786
head 14.125 -0.908716 5.3992
rclavicle 1.36167e-014 1.43125e-014
rhumerus -46.2689 0.154795 -79.0287
rradius 17.7072
rwrist 1.99799
rhand -22.6179 -30.7208
rfingers 7.12502
rthumb 3.81208 -60.6664
lclavicle 1.36167e-014 1.43125e-014
lhumerus -17.2894 -20.7735 92.4779
lradius 42.7597
lwrist 11.7534
lhand -17.2545 -29.3306
lfingers 7.12502
lthumb 8.98981 0.457856
rfemur -21.4211 -6.72227 32.3616
rtibia 28.7632
rfoot -8.81822 7.40206
rtoes -10.6751
lfemur -6.63957 9.02639 -9.59657
ltibia 66.3993
lfoot 5.92962 13.8258
ltoes -3.47078
277
root 9.1887 17.1749 24.6506 2.20096 8.30116 -5.56698
lowerback -5.70391 -3.3439 0.679155
upperback -0.967261 -4.61623 4.62483
thorax 2.52613 -2.31736 4.03114
lowerneck -22.2641 -2.37582 -11.0983
upperneck 30.1346 -2.46107 9.58091
head 14.3375 -1.00043 5.40435
rclavicle -1.1691e-014 5.96354e-014
rhumerus -45.651 0.336419 -79.4508
rradius 17.9148
rwrist 1.45738
rhand -23.7701 -28.2599
rfingers 7.12502
rthumb 2.69938 -58.2226
lclavicle -1.1691e-014 5.96354e-014
lhumerus -17.6859 -20.8972 93.0938
lradius 41.3509
lwrist 10.7098
lhand -17.2119 -30.1713
lfingers 7.12502
lthumb 9.03086 -0.384639
rfemur -20.2948 -6.4906 32.9458
rtibia 27.7713
rfoot -8.73478 7.1383
rtoes -10.5635
lfemur -8.7698 8.84161 -9.41936
ltibia 68.2543
lfoot 4.77229 14.5337
ltoes -2.48019
278
root 9.17408 17.205 24.829 2.14685 7.96966 -5.78293
lowerback -5.61957 -3.09666 0.68634
upperback -0.883697 -4.29028 4.70948
thorax 2.5493 -2.15595 4.14539
lowerneck -22.3897 -2.59938 -11.0746
upperneck 30.3182 -2.76972 9.50311
head 14.4903 -1.14351 5.32413
rclavicle 9.10682e-015 -1.82882e-014
rhumerus -44.893 0.806546 -79.8394
rradius 18.066
rwrist 0.973325
rhand -24.7157 -24.758
rfingers 7.12502
rthumb 1.78613 -54.7302
lclavicle 9.10682e-015 -1.82882e-014
lhumerus -18.0899 -20.7817 93.5598
lradius 39.8491
lwrist 9.99096
lhand -17.5737 -29.3098
lfingers 7.12502
lthumb 8.6817 0.491661
rfemur -19.015 -5.99743 33.2422
rtibia 26.8002
rfoot -8.92727 6.95456
rtoes -11.117
lfemur -10.6421 8.81035 -9.45552
ltibia 69.7334
lfoot 3.24715 15.1002
ltoes -4.6025
279
root 9.17197 17.2395 25.0128 2.06916 7.45745 -5.34085
lowerback -5.49375 -2.84324 0.191842
upperback -0.81077 -3.91917 4.57429
thorax 2.5518 -1.97591 4.3181
lowerneck -22.1165 -2.66305 -11.1749
upperneck 30.2913 -2.90158 9.63818
head 14.4413 -1.19722 5.37009
rclavicle 4.0316e-014 -3.49861e-014
rhumerus -44.0734 1.03167 -79.9948
rradius 18.4597
rwrist 0.555752
rhand -24.8046 -23.4676
rfingers 7.12502
rthumb 1.70024 -53.4405
lclavicle 4.0316e-014 -3.49861e-014
lhumerus -18.751 -20.6723 93.9777
lradius 38.479
lwrist 9.39284
lhand -17.8973 -28.6462
lfingers 7.12502
lthumb 8.36941 1.16796
rfemur -17.4437 -5.57153 32.7205
rtibia 25.8528
rfoot -9.13167 7.14233
rtoes -9.81539
lfemur -12.0485 8.68782 -10.374
ltibia 70.7326
lfoot 0.941418 15.4856
ltoes -9.82518
280
root 9.17606 17.274 25.2056 2.04292 6.85543 -5.01613
lowerback -5.49396 -2.47332 -0.0460388
upperback -0.823702 -3.4067 4.42836
thorax 2.5041 -1.72075 4.34285
lowerneck -21.5944 -2.71154 -11.4129
upperneck 30.1317 -3.03773 9.94396
head 14.2855 -1.24716 5.50124
rclavicle -1.92821e-014 3.57812e-014
rhumerus -43.4582 1.61098 -80.4834
rradius 18.9568
rwrist -0.150116
rhand -24.0835 -24.9246
rfingers 7.12502
rthumb 2.39667 -54.8909
lclavicle -1.92821e-014 3.57812e-014
lhumerus -19.7076 -20.4761 94.5374
lradius 37.1962
lwrist 8.46629
lhand -17.3346 -28.1584
lfingers 7.12502
lthumb 8.91245 1.63334
rfemur -15.9488 -5.19396 32.3084
rtibia 25.0499
rfoot -9.39981 7.54889
rtoes -8.27351
lfemur -13.3674 8.72054 -11.1976
ltibia 71.3971
lfoot -0.425417 15.3338
ltoes -9.60346
281
root 9.18252 17.3082 25.3815 2.24908 6.34373 -4.95958
lowerback -5.36065 -2.13798 0.039861
upperback -1.13726 -2.94548 4.34855
thorax 2.06097 -1.48196 4.25907
lowerneck -21.0896 -2.7443 -11.5032
upperneck 30.307 -3.16017 10.0565
head 14.2737 -1.30776 5.54727
rclavicle -1.78658e-014 5.56597e-015
rhumerus -43.2383 3.33683 -81.769
rradius 19.1777
rwrist -1.05872
rhand -24.6208 -26.0538
rfingers 7.12502
rthumb 1.87776 -56.0253
lclavicle -1.78658e-014 5.56597e-015
lhumerus -20.978 -19.9231 95.1052
lradius 35.9205
lwrist 7.39019
lhand -15.8087 -26.9985
lfingers 7.12502
lthumb 10.3847 2.72508
rfemur -15.1141 -5.08151 32.2943
rtibia 24.4137
rfoot -9.95947 7.93637
rtoes -10.8573
lfemur -15.1387 8.72079 -11.7448
ltibia 71.8908
lfoot -0.872876 14.9603
ltoes -3.20932
